<svg xmlns="http://www.w3.org/2000/svg" width="512" height="512" fill="none" viewBox="0 0 512 512">
  <circle cx="256" cy="256" r="256" fill="#fff"/>
  <path fill="url(#paint0_linear_78_58)" d="M235.657 404.036L109.761 153.787a35.385 35.385 0 01-3.66-18.556 35.267 35.267 0 016.406-17.77 34.438 34.438 0 0114.59-11.76 33.83 33.83 0 0118.482-2.293l233.318 36.601a34.056 34.056 0 0114.875 6.205 34.774 34.774 0 0110.466 12.408 35.373 35.373 0 013.762 15.89 35.37 35.37 0 01-3.767 15.888l-107.48 213.648a34.676 34.676 0 01-12.655 13.841A33.916 33.916 0 01266.201 423a33.924 33.924 0 01-17.895-5.117 34.69 34.69 0 01-12.649-13.847z"/>
  <defs>
    <linearGradient id="paint0_linear_78_58" x1="106" x2="534.89" y1="174.111" y2="418.548" gradientUnits="userSpaceOnUse">
      <stop stop-color="#FF7A00"/>
      <stop offset="1" stop-color="#FA0F00"/>
    </linearGradient>
  </defs>
</svg>
